<svg width="186" height="100" viewBox="0 0 186 100" fill="none" xmlns="http://www.w3.org/2000/svg">
<g clip-path="url(#clip0_1519_505)">
<path d="M27.5493 99.8489V94.081C27.5493 93.5803 27.5777 92.9803 27.6297 92.2907H27.5966C27.527 92.6208 27.4354 92.9459 27.3224 93.2638L24.5849 99.8489H23.7008L20.9681 93.3157C20.8555 92.9804 20.7655 92.638 20.6986 92.2907H20.6655C20.7034 92.8292 20.7223 93.4764 20.7223 94.2369V99.8489H19.4363V90.916H21.37L23.7859 96.8398C23.9448 97.2104 24.0698 97.5946 24.1594 97.9877H24.202C24.2729 97.7467 24.41 97.3547 24.6039 96.8209L27.0624 90.9396H28.9204V99.8725L27.5493 99.8489Z" fill="#26B093"/>
<path d="M50.229 99.8489H48.6971L47.8603 97.5247H44.2908L43.4965 99.8489H41.9694L45.3403 90.916H46.8816L50.229 99.8489ZM47.4821 96.3674L46.2339 92.8434C46.1708 92.6237 46.1249 92.3994 46.0968 92.1726H46.059C46.0311 92.3971 45.9821 92.6186 45.9124 92.8339L44.6737 96.3674H47.4821Z" fill="#26B093"/>
<path d="M70.0436 99.2441C69.0986 99.7621 68.0339 100.023 66.9563 99.9999C66.3668 100.028 65.778 99.9335 65.2265 99.7239C64.6751 99.5142 64.1727 99.1933 63.7507 98.7811C63.341 98.3439 63.0235 97.8287 62.8172 97.2663C62.6109 96.7039 62.52 96.1057 62.5499 95.5075C62.5271 94.8786 62.6348 94.2518 62.8662 93.6665C63.0976 93.0813 63.4476 92.5501 63.8943 92.1065C64.3409 91.6628 64.8746 91.3163 65.4618 91.0886C66.0489 90.861 66.6769 90.7571 67.3061 90.7836C68.1519 90.7632 68.993 90.9143 69.7788 91.2276V92.6448C69.0045 92.1914 68.118 91.9655 67.221 91.9929C66.7906 91.9775 66.3619 92.0538 65.9633 92.2167C65.5647 92.3796 65.2053 92.6253 64.9091 92.9377C64.3384 93.6384 64.0205 94.5107 64.0068 95.4141C63.9931 96.3174 64.2843 97.199 64.8334 97.9167C65.122 98.2174 65.4718 98.4528 65.8592 98.6068C66.2467 98.7609 66.6627 98.83 67.0792 98.8095C67.6243 98.8247 68.1648 98.7064 68.6536 98.4646V96.2255H66.7624V95.0493H70.0719L70.0436 99.2441Z" fill="#26B093"/>
<path d="M91.0684 99.8489H89.5461L88.7092 97.5247H85.1302L84.3312 99.8489H82.8088L86.1798 90.916H87.7211L91.0684 99.8489ZM88.3215 96.3674L87.0734 92.8434C87.0079 92.6243 86.962 92.3998 86.9363 92.1726H86.8937C86.8695 92.3973 86.822 92.619 86.7519 92.8339L85.5085 96.3674H88.3215Z" fill="#26B093"/>
<path d="M110.543 91.478L105.574 98.663H110.467V99.8487H103.602V99.2488L108.585 92.1157H104.013V90.9253H110.561L110.543 91.478Z" fill="#26B093"/>
<path d="M125.142 92.045V98.7293V99.8583H123.757V98.7293V90.916H125.142V92.045Z" fill="#26B093"/>
<path d="M146.701 99.8489H145.146L140.891 93.2638C140.755 93.0663 140.64 92.8558 140.546 92.6355H140.508C140.554 93.0685 140.571 93.504 140.56 93.9393V99.8489H139.217V90.916H140.858L145.004 97.3736C145.203 97.6806 145.33 97.8979 145.397 98.016H145.425C145.375 97.5912 145.355 97.1635 145.363 96.7358V90.916H146.711L146.701 99.8489Z" fill="#26B093"/>
<path d="M165.712 99.8489H160.748V90.916H165.499V92.1159H162.166V94.7424H165.291V95.9281H162.166V98.6726H165.731L165.712 99.8489Z" fill="#26B093"/>
<path d="M32.4994 43.8189L40.3383 57.2016C40.9266 58.2063 41.2391 59.3483 41.2442 60.5123C41.2494 61.6763 40.9469 62.821 40.3675 63.8308C39.788 64.8406 38.9521 65.6797 37.9442 66.2634C36.9362 66.8471 35.792 67.1546 34.627 67.1549H32.0739C30.914 67.1529 29.775 66.8463 28.771 66.266C27.7669 65.6856 26.9332 64.8518 26.3532 63.8482L16.7603 49.8371V60.5414C16.7603 62.2954 16.063 63.9776 14.8217 65.2178C13.5804 66.4581 11.8968 67.1549 10.1413 67.1549H6.61903C4.86356 67.1549 3.17998 66.4581 1.93867 65.2178C0.69736 63.9776 0 62.2954 0 60.5414L0 14.3371C0 12.5831 0.69736 10.9009 1.93867 9.66067C3.17998 8.4204 4.86356 7.72363 6.61903 7.72363H10.1413C11.8968 7.72363 13.5804 8.4204 14.8217 9.66067C16.063 10.9009 16.7603 12.5831 16.7603 14.3371V39.3737L25.9088 27.3419C26.5084 26.4117 27.332 25.6466 28.3042 25.1167C29.2764 24.5869 30.3661 24.3092 31.4735 24.3092H33.5349C34.7484 24.3097 35.9385 24.6436 36.975 25.2743C38.0115 25.9051 38.8545 26.8084 39.4118 27.8855C39.9692 28.9627 40.2194 30.1722 40.1351 31.3818C40.0509 32.5914 39.6354 33.7547 38.9341 34.7443L32.4994 43.8189Z" fill="#26B093"/>
<path d="M61.2639 55.0381C62.7255 55.1052 64.1825 54.8302 65.519 54.2351C66.5929 53.7279 67.7817 53.5128 68.9655 53.6115C70.1492 53.7102 71.286 54.1192 72.2609 54.7972L72.4879 54.9531C73.4885 55.6368 74.282 56.5819 74.7818 57.6853C75.2817 58.7888 75.4686 60.0082 75.3223 61.2106C75.176 62.4129 74.702 63.552 73.952 64.5036C73.2021 65.4552 72.205 66.1828 71.0695 66.6069C67.7608 67.7783 64.2676 68.3432 60.758 68.2745C46.1914 68.2745 37.1611 58.5149 37.1611 45.751C37.1787 39.7701 39.5698 34.0404 43.8101 29.8187C48.0503 25.5971 53.7934 23.2284 59.7793 23.2322C74.3459 23.2322 82.563 34.6971 82.563 44.8581V44.9385C82.5567 46.4085 81.9675 47.8162 80.9245 48.853C79.8814 49.8899 78.4696 50.4714 76.9982 50.4701H53.5338C54.8434 53.5784 57.5194 55.0381 61.2639 55.0381ZM67.3676 40.8948C66.3889 37.4794 64.0297 35.3631 60.2048 35.3631C56.2192 35.3631 53.9404 37.1535 53.0468 40.8948H67.3676Z" fill="#26B093"/>
<path d="M167.239 45.7698C167.239 58.6187 158.289 68.2933 145.761 68.2933C142.177 68.2933 139.085 67.4792 136.484 65.851V79.2669C136.483 79.9138 136.225 80.5338 135.767 80.9907C135.309 81.4477 134.688 81.7044 134.04 81.7044H122.164C121.843 81.705 121.525 81.6424 121.229 81.5202C120.932 81.398 120.663 81.2185 120.436 80.9921C120.209 80.7657 120.028 80.4968 119.906 80.2008C119.783 79.9047 119.719 79.5874 119.719 79.2669V30.9226C119.719 29.1686 120.417 27.4864 121.658 26.2462C122.899 25.0059 124.583 24.3091 126.338 24.3091H132.74C133.387 24.3091 134.007 24.5659 134.465 25.0231C134.922 25.4802 135.18 26.1002 135.18 26.7467C138.111 24.4697 141.77 23.251 146.167 23.251C158.696 23.251 167.239 32.9255 167.239 45.7698ZM150.559 45.7698C150.559 41.2207 147.548 37.9659 143.236 37.9659C138.678 37.9659 135.752 41.1356 135.752 45.7698C135.752 50.4039 138.678 53.5783 143.236 53.5783C147.548 53.5783 150.559 50.3236 150.559 45.7698Z" fill="#26B093"/>
<path d="M165.131 9.83514C165.131 4.16647 169.528 0 175.14 0C180.752 0 185.148 4.14757 185.148 9.83514C185.148 15.5227 180.756 19.5144 175.14 19.5144C169.523 19.5144 165.131 15.5274 165.131 9.83514ZM173.168 24.3091H176.988C178.701 24.3141 180.343 24.9977 181.553 26.2099C182.762 27.4222 183.442 29.0642 183.442 30.7761V60.6878C183.442 62.403 182.76 64.0479 181.546 65.2607C180.332 66.4735 178.686 67.1548 176.969 67.1548H173.149C171.433 67.1548 169.786 66.4735 168.572 65.2607C167.359 64.0479 166.677 62.403 166.677 60.6878V30.7761C166.677 29.061 167.359 27.4161 168.572 26.2033C169.786 24.9905 171.433 24.3091 173.149 24.3091H173.168Z" fill="#26B093"/>
<path d="M96.7703 74.3588C112.045 74.3588 124.428 61.9863 124.428 46.7241C124.428 31.4619 112.045 19.0894 96.7703 19.0894C81.4951 19.0894 69.1122 31.4619 69.1122 46.7241C69.1122 61.9863 81.4951 74.3588 96.7703 74.3588Z" fill="#26B093"/>
<path d="M96.7702 68.1186C108.596 68.1186 118.183 58.5399 118.183 46.7241C118.183 34.9082 108.596 25.3296 96.7702 25.3296C84.9444 25.3296 75.3577 34.9082 75.3577 46.7241C75.3577 58.5399 84.9444 68.1186 96.7702 68.1186Z" fill="#E5C093"/>
<path d="M103.039 53.38C102.534 50.9331 100.675 48.9916 95.4133 47.5649C90.3876 46.2328 90.3025 42.0427 91.1015 38.7974C91.1996 38.5131 91.2068 38.2053 91.1221 37.9167C91.0374 37.6281 90.865 37.3729 90.6287 37.1866C90.3603 37.0095 90.0468 36.9127 89.7251 36.9077C89.4035 36.9027 89.0871 36.9896 88.8132 37.1582C88.2051 37.5006 87.6494 37.9285 87.1632 38.4289C83.1492 42.6804 83.674 49.7946 88.3593 54.6271C91.9998 58.3779 97.4369 59.8518 101.597 58.2126C102.18 58.022 102.671 57.6211 102.973 57.0883C103.027 57.0199 103.071 56.9434 103.101 56.8616C103.169 56.6801 103.222 56.4938 103.262 56.3041C103.378 55.8539 103.404 55.385 103.337 54.9248C103.337 54.6838 103.304 54.4902 103.271 54.3201C103.238 54.15 103.068 53.5879 103.039 53.38Z" fill="#3A1F11"/>
<path d="M94.2881 36.0292C92.7468 36.152 92.5483 37.6117 92.4679 38.1786C91.5223 44.8156 95.0777 45.9541 98.1886 46.9556C100.94 47.8436 103.536 48.6798 104.377 52.7518C104.418 53.0957 104.567 53.4179 104.802 53.6724C105.038 53.9269 105.347 54.1007 105.687 54.1689C106.354 54.2634 106.997 53.8524 107.408 53.073C108.099 51.7294 108.465 50.2424 108.476 48.7317C108.449 45.2908 107.07 41.9982 104.637 39.5627C102.803 37.6731 99.9096 36.3599 96.9074 36.0481C96.7135 36.0481 96.5481 36.0056 96.3448 35.9772C95.6592 35.9252 94.9702 35.9426 94.2881 36.0292Z" fill="#3A1F11"/>
</g>
<defs>
<clipPath id="clip0_1519_505">
<rect width="185.149" height="100" fill="white"/>
</clipPath>
</defs>
</svg>
