<svg width="60" height="60" viewBox="0 0 60 60" fill="none" xmlns="http://www.w3.org/2000/svg">
<rect opacity="0.3" width="59.5568" height="59.5568" rx="29.7784" fill="white"/>
<path d="M32.4991 40.0019V35.077C32.4991 34.8585 32.4113 34.6489 32.255 34.4944C32.0987 34.3399 31.8868 34.2531 31.6657 34.2531H28.3322C28.1112 34.2531 27.8992 34.3399 27.743 34.4944C27.5867 34.6489 27.4989 34.8585 27.4989 35.077V40.0055C27.4989 40.2233 27.4116 40.4323 27.2562 40.5866C27.1009 40.741 26.89 40.8283 26.6697 40.8294L20.8319 40.8443C20.6108 40.8443 20.3989 40.7575 20.2426 40.603C20.0863 40.4485 19.9985 40.239 19.9985 40.0204V31.5811L29.6026 23.7617C29.7155 23.6718 29.8561 23.6227 30.0011 23.6227C30.146 23.6227 30.2867 23.6718 30.3995 23.7617L39.9995 31.5754V40.0204C39.9995 40.239 39.9117 40.4485 39.7554 40.603C39.5991 40.7575 39.3871 40.8443 39.1661 40.8443L33.3325 40.8284C33.2228 40.8284 33.1142 40.807 33.013 40.7654C32.9117 40.7239 32.8197 40.6629 32.7423 40.5862C32.6649 40.5094 32.6035 40.4182 32.5618 40.318C32.5201 40.2177 32.4988 40.1103 32.4991 40.0019Z" fill="white"/>
<path d="M42.6517 31.6269L30.3995 21.6505C30.2866 21.5605 30.146 21.5115 30.001 21.5115C29.8561 21.5115 29.7155 21.5605 29.6026 21.6505L17.351 31.6269C17.223 31.7311 17.0584 31.7807 16.8934 31.7648C16.7284 31.749 16.5766 31.669 16.4712 31.5425L15.143 29.9462C15.0375 29.8198 14.9871 29.6572 15.0028 29.4941C15.0185 29.331 15.0991 29.1808 15.2269 29.0764L28.4098 18.3415C28.8573 17.9774 29.4189 17.7783 29.9984 17.7783C30.578 17.7783 31.1395 17.9774 31.5871 18.3415L44.7716 29.0764C44.835 29.1279 44.8876 29.1913 44.9263 29.2628C44.9649 29.3344 44.989 29.4128 44.997 29.4936C45.005 29.5744 44.9969 29.6559 44.973 29.7335C44.9492 29.8112 44.9101 29.8834 44.858 29.9462L43.5298 31.5425C43.4245 31.6686 43.273 31.7482 43.1084 31.7641C42.9438 31.7799 42.7796 31.7306 42.6517 31.6269Z" fill="white"/>
</svg>
