<svg width="43" height="17" viewBox="0 0 43 17" fill="none" xmlns="http://www.w3.org/2000/svg">
<path d="M18.6768 6.95113C19.4633 6.35173 20.3615 6.15402 21.3533 6.15402C22.354 6.15402 23.1918 6.34253 23.8677 6.9174C24.5429 7.49183 24.8855 8.31478 24.8855 9.3864H17.4881C17.4881 8.36661 17.8817 7.55169 18.6768 6.95113ZM27.7071 9.75494C27.7071 7.91163 26.9887 6.47161 25.7573 5.41693C24.5259 4.37101 23.0293 3.84813 21.2759 3.84813C19.523 3.84813 18.0006 4.43964 16.7095 5.62281C15.4096 6.81446 14.7683 8.40911 14.7683 10.4149C14.7683 12.4218 15.4007 14.0246 16.6753 15.2163C17.9408 16.4085 19.4802 17 21.2931 17C23.525 17 25.338 16.2882 26.732 14.8647L25.1759 13.185C24.3296 14.188 23.1065 14.6932 21.4902 14.6932C20.4726 14.6932 19.5661 14.4622 18.7708 13.8958C17.9756 13.3215 17.5477 12.5757 17.4881 11.6495H27.7071V9.75494Z" fill="#989898"/>
<path d="M33.8645 17L39.0553 4.03634H36.1817L32.248 13.6821L28.323 4.03634H25.5008L30.7003 17H33.8645Z" fill="#989898"/>
<path d="M10.7575 12.6703C9.67165 13.6394 8.0983 14.1194 6.04551 14.1194H3.89921V8.82073C3.89921 7.14022 2.52292 5.8798 0.82068 5.8798V14.2133C0.82068 15.7567 2.08658 17 3.6426 17H5.66131C8.92786 17 11.3223 16.2457 12.9041 14.7194C14.4954 13.2018 15.2901 10.9469 15.2901 8.34048C15.2901 5.72575 14.4693 3.65232 12.8355 2.18616C11.2025 0.719717 8.86801 0 5.82341 0H0C0 1.53493 1.26517 2.88062 2.82148 2.88062H5.79763C10.2444 2.88062 12.3995 4.72277 12.3995 8.56344C12.3995 10.4583 11.8522 11.7272 10.7575 12.696V12.6703Z" fill="#989898"/>
<path d="M38.4453 16.1995C37.931 15.6845 37.6738 15.0518 37.6738 14.3038C37.6738 13.5546 37.931 12.9225 38.4453 12.4069C38.9601 11.8913 39.5901 11.6329 40.3368 11.6329C41.0828 11.6329 41.7137 11.8913 42.2278 12.4069C42.7427 12.9225 42.9999 13.5546 42.9999 14.3038C42.9999 15.0518 42.7427 15.6845 42.2278 16.1995C41.7136 16.7148 41.0827 16.9733 40.3368 16.9733C39.5901 16.9733 38.9601 16.715 38.4453 16.1995Z" fill="#989898"/>
</svg>
