<svg width="33" height="34" viewBox="0 0 33 34" fill="none" xmlns="http://www.w3.org/2000/svg">
<path d="M16.4426 8.21374C11.8259 8.21374 8.10212 11.9934 8.10212 16.6794C8.10212 21.3653 11.8259 25.145 16.4426 25.145C21.0593 25.145 24.7831 21.3653 24.7831 16.6794C24.7831 11.9934 21.0593 8.21374 16.4426 8.21374ZM16.4426 22.1831C13.4592 22.1831 11.0202 19.7149 11.0202 16.6794C11.0202 13.6438 13.4519 11.1756 16.4426 11.1756C19.4333 11.1756 21.865 13.6438 21.865 16.6794C21.865 19.7149 19.426 22.1831 16.4426 22.1831ZM27.0697 7.86745C27.0697 8.96525 26.1986 9.84202 25.1243 9.84202C24.0427 9.84202 23.1789 8.95788 23.1789 7.86745C23.1789 6.77701 24.05 5.89287 25.1243 5.89287C26.1986 5.89287 27.0697 6.77701 27.0697 7.86745ZM32.5937 9.87149C32.4703 7.22645 31.8751 4.88348 29.966 2.95311C28.0642 1.02275 25.7558 0.418586 23.1499 0.285965C20.4641 0.131241 12.4139 0.131241 9.72812 0.285965C7.12942 0.411218 4.82108 1.01538 2.91198 2.94575C1.00288 4.87611 0.414911 7.21908 0.28425 9.86413C0.131812 12.5902 0.131812 20.7611 0.28425 23.4872C0.407652 26.1323 1.00288 28.4752 2.91198 30.4056C4.82108 32.336 7.12216 32.9401 9.72812 33.0727C12.4139 33.2275 20.4641 33.2275 23.1499 33.0727C25.7558 32.9475 28.0642 32.3433 29.966 30.4056C31.8679 28.4752 32.4631 26.1323 32.5937 23.4872C32.7462 20.7611 32.7462 12.5976 32.5937 9.87149ZM29.124 26.4122C28.5578 27.8563 27.4617 28.9689 26.0317 29.5509C23.8903 30.413 18.809 30.214 16.4426 30.214C14.0762 30.214 8.98771 30.4056 6.85358 29.5509C5.43083 28.9762 4.33473 27.8637 3.76128 26.4122C2.91198 24.2387 3.10797 19.0813 3.10797 16.6794C3.10797 14.2774 2.91924 9.11261 3.76128 6.94647C4.32747 5.50238 5.42357 4.38984 6.85358 3.80778C8.99496 2.94575 14.0762 3.14468 16.4426 3.14468C18.809 3.14468 23.8975 2.95311 26.0317 3.80778C27.4544 4.38247 28.5505 5.49501 29.124 6.94647C29.9733 9.11998 29.7773 14.2774 29.7773 16.6794C29.7773 19.0813 29.9733 24.2461 29.124 26.4122Z" fill="white"/>
</svg>
