<svg width="34" height="34" viewBox="0 0 34 34" fill="none" xmlns="http://www.w3.org/2000/svg">
<path d="M7.45345 33.0207H0.550015V10.975H7.45345V33.0207ZM3.99802 7.96772C1.79052 7.96772 0 6.15453 0 3.96543C1.58003e-08 2.91393 0.421219 1.90549 1.17099 1.16197C1.92077 0.418441 2.93768 0.000732422 3.99802 0.000732422C5.05836 0.000732422 6.07527 0.418441 6.82504 1.16197C7.57482 1.90549 7.99604 2.91393 7.99604 3.96543C7.99604 6.15453 6.20477 7.96772 3.99802 7.96772ZM26.4022 33.0207V22.289C26.4022 19.7314 26.3502 16.4514 22.813 16.4514C19.2238 16.4514 18.6738 19.2302 18.6738 22.1047V33.0207H11.7778V10.975H18.3988V13.9822H18.4954C19.417 12.2501 21.6684 10.4222 25.0272 10.4222C32.0139 10.4222 33.2982 14.9846 33.2982 20.9107V33.0207H26.4022Z" fill="white"/>
</svg>
