<svg width="26" height="34" viewBox="0 0 26 34" fill="none" xmlns="http://www.w3.org/2000/svg">
<path d="M13.6279 0.169922C6.84028 0.169922 0.13208 4.69498 0.13208 12.0184C0.13208 16.6758 2.75185 19.322 4.33959 19.322C4.99453 19.322 5.37162 17.4961 5.37162 16.9801C5.37162 16.3649 3.80373 15.055 3.80373 12.4947C3.80373 7.17582 7.85246 3.40494 13.092 3.40494C17.5972 3.40494 20.9315 5.96517 20.9315 10.6688C20.9315 14.1817 19.5223 20.7708 14.9576 20.7708C13.3103 20.7708 11.9012 19.58 11.9012 17.8732C11.9012 15.3725 13.6477 12.9512 13.6477 10.3711C13.6477 5.99163 7.43568 6.7855 7.43568 12.078C7.43568 13.1894 7.57461 14.4199 8.07077 15.4321C7.15782 19.3617 5.29223 25.2165 5.29223 29.2652C5.29223 30.5156 5.47085 31.7461 5.58993 32.9964C5.81486 33.2478 5.7024 33.2214 6.04641 33.0957C9.38066 28.5309 9.26158 27.6378 10.7699 21.6639C11.5836 23.212 13.6874 24.0455 15.3545 24.0455C22.3803 24.0455 25.5359 17.1984 25.5359 11.0261C25.5359 4.45682 19.8597 0.169922 13.6279 0.169922Z" fill="white"/>
</svg>
