<svg width="30" height="34" viewBox="0 0 30 34" fill="none" xmlns="http://www.w3.org/2000/svg">
<path d="M29.7017 13.7104C26.8618 13.7172 24.0915 12.8316 21.7823 11.1786V22.7071C21.7815 24.8424 21.1289 26.9264 19.9116 28.6807C18.6944 30.435 16.9706 31.7759 14.9708 32.5241C12.9709 33.2722 10.7903 33.392 8.72057 32.8674C6.65081 32.3428 4.79053 31.1988 3.38848 29.5884C1.98644 27.978 1.10946 25.9779 0.8748 23.8556C0.640145 21.7333 1.059 19.59 2.07536 17.7122C3.09173 15.8344 4.65715 14.3116 6.56231 13.3475C8.46748 12.3834 10.6216 12.0239 12.7366 12.3171V18.1156C11.7687 17.8112 10.7295 17.8203 9.76717 18.1418C8.80487 18.4632 7.96875 19.0805 7.37821 19.9055C6.78767 20.7305 6.47292 21.721 6.47889 22.7356C6.48487 23.7502 6.81127 24.7369 7.41148 25.5549C8.0117 26.3728 8.85503 26.9803 9.82105 27.2904C10.7871 27.6005 11.8264 27.5974 12.7906 27.2816C13.7547 26.9658 14.5944 26.3534 15.1898 25.5319C15.7852 24.7103 16.1057 23.7217 16.1057 22.7071V0.169922H21.7823C21.7783 0.649294 21.8185 1.12801 21.9023 1.60003C22.0995 2.65372 22.5096 3.65611 23.1076 4.54586C23.7055 5.43561 24.4787 6.19403 25.3798 6.77472C26.6618 7.6224 28.1648 8.0742 29.7017 8.07388V13.7104Z" fill="white"/>
</svg>
