<svg width="41" height="34" viewBox="0 0 41 34" fill="none" xmlns="http://www.w3.org/2000/svg">
<path d="M36.4768 8.22917C36.5026 8.59031 36.5026 8.95153 36.5026 9.31267C36.5026 20.3279 28.1187 33.02 12.7953 33.02C8.07441 33.02 3.68897 31.6527 0 29.2795C0.670743 29.3568 1.3156 29.3826 2.01215 29.3826C5.90742 29.3826 9.49324 28.067 12.3567 25.8227C8.69354 25.7453 5.6237 23.3462 4.56601 20.0442C5.08199 20.1215 5.59789 20.1731 6.13968 20.1731C6.88777 20.1731 7.63593 20.0699 8.3324 19.8894C4.51448 19.1154 1.65093 15.7619 1.65093 11.7118V11.6086C2.76016 12.2277 4.05011 12.6147 5.41724 12.6662C3.17291 11.17 1.70255 8.61612 1.70255 5.72685C1.70255 4.17906 2.11522 2.76024 2.83758 1.52198C6.9393 6.57816 13.1048 9.88011 20.0183 10.2413C19.8893 9.62219 19.8119 8.97734 19.8119 8.3324C19.8119 3.74051 23.5267 0 28.1443 0C30.5434 0 32.7103 1.00608 34.2324 2.63128C36.1155 2.27014 37.9213 1.57359 39.5207 0.61913C38.9015 2.55394 37.5859 4.17914 35.8576 5.21095C37.5344 5.03046 39.1596 4.56601 40.6558 3.92115C39.5209 5.57209 38.102 7.04245 36.4768 8.22917Z" fill="white"/>
</svg>
